<?xml version="1.0"?>
<svg xmlns="http://www.w3.org/2000/svg" xmlns:xlink="http://www.w3.org/1999/xlink" version="1.1" id="Capa_1" x="0px" y="0px" viewBox="0 0 512 512" style="enable-background:new 0 0 512 512;" xml:space="preserve" width="512px" height="512px"><g><g>
	<g>
		<g>
			<path d="M469.333,85.333H170.667c0-23.531-19.135-42.667-42.667-42.667h-21.333C83.135,42.667,64,61.802,64,85.333H42.667     C19.135,85.333,0,104.469,0,128v298.667c0,23.531,19.135,42.667,42.667,42.667h426.667c23.531,0,42.667-19.135,42.667-42.667V128     C512,104.469,492.865,85.333,469.333,85.333z M106.667,64H128c11.76,0,21.333,9.573,21.333,21.333h-64     C85.333,73.573,94.906,64,106.667,64z M21.333,213.333h87.688C81.285,240.462,64,278.23,64,320c0,22.923,5.344,44.57,14.613,64     h-57.28V213.333z M42.667,448c-11.76,0-21.333-9.573-21.333-21.333v-21.333h69.624c12.078,17.268,27.734,31.792,45.853,42.667     H42.667z M85.333,320c0-70.583,57.417-128,128-128s128,57.417,128,128s-57.417,128-128,128S85.333,390.583,85.333,320z      M490.667,426.667c0,11.76-9.573,21.333-21.333,21.333H289.857c18.119-10.875,33.775-25.398,45.853-42.667h154.957V426.667z      M490.667,384H348.053c9.27-19.43,14.613-41.077,14.613-64c0-41.77-17.285-79.538-45.021-106.667h173.021V384z M490.667,192     h-200.81c-22.414-13.452-48.534-21.333-76.523-21.333c-27.99,0-54.109,7.881-76.523,21.333H21.333v-64     c0-11.76,9.573-21.333,21.333-21.333h426.667c11.76,0,21.333,9.573,21.333,21.333V192z" data-original="#000000" class="active-path" data-old_color="#000000" fill="#FFFFFF"/>
			<circle cx="298.667" cy="149.333" r="21.333" data-original="#000000" class="active-path" data-old_color="#000000" fill="#FFFFFF"/>
			<path d="M437.333,128h-64c-5.896,0-10.667,4.771-10.667,10.667V160c0,5.896,4.771,10.667,10.667,10.667h64     c5.896,0,10.667-4.771,10.667-10.667v-21.333C448,132.771,443.229,128,437.333,128z" data-original="#000000" class="active-path" data-old_color="#000000" fill="#FFFFFF"/>
			<path d="M213.333,213.333c-58.813,0-106.667,47.854-106.667,106.667s47.854,106.667,106.667,106.667S320,378.813,320,320     S272.146,213.333,213.333,213.333z M213.333,405.333C166.281,405.333,128,367.052,128,320c0-47.052,38.281-85.333,85.333-85.333     c47.052,0,85.333,38.281,85.333,85.333C298.667,367.052,260.385,405.333,213.333,405.333z" data-original="#000000" class="active-path" data-old_color="#000000" fill="#FFFFFF"/>
		</g>
	</g>
</g></g> </svg>
