<?xml version="1.0"?>
<svg xmlns="http://www.w3.org/2000/svg" xmlns:xlink="http://www.w3.org/1999/xlink" version="1.1" id="Layer_1" x="0px" y="0px" viewBox="0 0 512 512" style="enable-background:new 0 0 512 512;" xml:space="preserve" width="512px" height="512px" class=""><g><g>
	<g>
		<path d="M490.626,153.44c-13.697-31.294-33.237-59.159-58.075-82.82c-3.203-3.054-8.279-2.93-11.335,0.275    c-3.053,3.206-2.93,8.281,0.276,11.335C469.518,127.98,495.967,189.693,495.967,256c0,132.318-107.648,239.967-239.967,239.967    S16.033,388.318,16.033,256S123.682,16.033,256,16.033c47.332,0,93.11,13.76,132.388,39.792c3.692,2.448,8.666,1.438,11.112-2.253    c2.447-3.691,1.437-8.666-2.253-11.111C355.334,14.682,306.491,0,256,0C187.62,0,123.333,26.629,74.981,74.981    C26.629,123.333,0,187.62,0,256s26.629,132.667,74.981,181.019C123.333,485.371,187.62,512,256,512s132.667-26.629,181.019-74.981    C485.372,388.667,512,324.38,512,256C512,220.347,504.808,185.841,490.626,153.44z" data-original="#000000" class="active-path" data-old_color="#000000" fill="#FFFFFF"/>
	</g>
</g><g>
	<g>
		<path d="M256,68.409C152.562,68.409,68.409,152.562,68.409,256c0,44.509,15.863,87.663,44.67,121.513    c2.871,3.371,7.93,3.779,11.301,0.91c3.371-2.87,3.779-7.929,0.91-11.301C98.949,336.168,84.443,296.706,84.443,256    c0-94.597,76.96-171.557,171.557-171.557S427.557,161.403,427.557,256S350.597,427.557,256,427.557    c-38.964,0-75.688-12.731-106.201-36.814c-3.474-2.742-8.516-2.15-11.26,1.326c-2.743,3.475-2.148,8.516,1.326,11.259    c33.371,26.34,73.529,40.262,116.134,40.262c103.438,0,187.591-84.153,187.591-187.591S359.438,68.409,256,68.409z" data-original="#000000" class="active-path" data-old_color="#000000" fill="#FFFFFF"/>
	</g>
</g><g>
	<g>
		<path d="M405.231,193.022c-1.368-3.254-4.837-5.249-8.336-4.835c-2.931,0.347-5.507,2.362-6.548,5.126l-22.879,60.69    c-12.243-28.275-26.491-64.555-26.491-74.964c0-11.959,8.074-22.388,19.634-25.364c0.964-0.248,1.836-0.715,2.823-0.89    c0.926-0.165,1.799-0.375,2.644-0.802c1.562-0.788,2.848-2.109,3.604-3.683c1.475-3.068,0.776-6.905-1.682-9.26    C337.721,110.036,297.944,94.063,256,94.063c-57.632,0-111.38,31.023-140.269,80.962c-3.027,5.233,0.849,12.033,6.932,12.033    c0.12,0,26.835-0.001,26.835-0.001l65.061,161.265l-15.629,41.953c-2.271-0.968-4.511-1.996-6.722-3.075    c0,0-74.222-183.941-74.258-184.024c-1.189-3.275-4.458-5.456-7.94-5.278c-3.234,0.165-6.122,2.336-7.175,5.399    c-5.82,16.919-8.771,34.651-8.771,52.704c0,89.293,72.644,161.937,161.937,161.937c89.292,0,161.937-72.644,161.937-161.937    C417.937,234.163,413.663,212.974,405.231,193.022z M110.096,256c0-8.238,0.684-16.399,2.036-24.428l57.17,141.705    C133.409,346.672,110.096,304.009,110.096,256z M166.787,187.056h3.702c4.427,0,8.017-3.589,8.017-8.017s-3.589-8.017-8.017-8.017    H137.39c27.237-37.898,71.481-60.927,118.61-60.927c33.37,0,65.21,11.227,90.987,31.842    c-13.349,7.254-22.044,21.354-22.044,37.101c0,19.363,29.236,84.82,34.459,96.358l-19.325,51.263l-56.322-139.604h6.449    c4.428,0,8.017-3.589,8.017-8.017s-3.588-8.017-8.017-8.017h-85.511c-4.427,0-8.017,3.589-8.017,8.017s3.589,8.017,8.017,8.017    h6.449l33.013,81.827l-21.294,57.159L166.787,187.056z M256.001,401.903c-14.595,0.001-28.69-2.162-41.995-6.169l16.664-44.73    c0,0,0-0.001,0.001-0.002l22.379-60.071l42.564,105.504C283.014,399.995,269.727,401.903,256.001,401.903z M317.785,388.156    c-2.298,1.078-4.627,2.098-6.988,3.059l-82.366-204.159h38.036l65.356,161.994L317.785,388.156z M339.28,375.731l58.152-155.759    c2.973,11.693,4.472,23.744,4.472,36.028C401.904,305.515,377.105,349.342,339.28,375.731z" data-original="#000000" class="active-path" data-old_color="#000000" fill="#FFFFFF"/>
	</g>
</g></g> </svg>
